<svg xmlns="http://www.w3.org/2000/svg" viewBox="0 0 1280 640" role="img" aria-labelledby="title desc">
  <title id="title">CalcNova social preview</title>
  <desc id="desc">CalcNova calculator mark, project name, tagline, technology stack, and repository address.</desc>
  <defs>
    <linearGradient id="background" x1="0" y1="0" x2="1" y2="1">
      <stop offset="0" stop-color="#101726"/>
      <stop offset="1" stop-color="#263653"/>
    </linearGradient>
  </defs>
  <rect width="1280" height="640" fill="url(#background)"/>
  <circle cx="1090" cy="80" r="210" fill="#ffce4b" opacity="0.075"/>
  <circle cx="104" cy="614" r="230" fill="#ffffff" opacity="0.035"/>
  <g transform="translate(126 116)">
    <rect width="316" height="408" rx="72" fill="#f8fafc"/>
    <rect x="44" y="50" width="228" height="92" rx="24" fill="#182033"/>
    <g fill="#182033">
      <rect x="44" y="190" width="62" height="62" rx="18"/>
      <rect x="127" y="190" width="62" height="62" rx="18"/>
      <rect x="210" y="190" width="62" height="62" rx="18"/>
      <rect x="44" y="274" width="62" height="62" rx="18"/>
      <rect x="127" y="274" width="62" height="62" rx="18"/>
    </g>
    <g fill="#ffce4b">
      <path d="M284 -24l17 47 47 17-47 17-17 47-17-47-47-17 47-17z"/>
      <path d="M230 284h19v25h25v19h-25v25h-19v-25h-25v-19h25z"/>
    </g>
  </g>
  <g font-family="Inter,Segoe UI,Arial,sans-serif" fill="#f8fafc">
    <text x="520" y="260" font-size="92" font-weight="700" letter-spacing="-3">CalcNova</text>
    <text x="526" y="330" font-size="34" opacity="0.82">Fast. Precise. Private. Everywhere.</text>
    <text x="526" y="398" font-size="26" opacity="0.62">C# • .NET • Avalonia UI • Open Source</text>
    <text x="526" y="468" font-size="24" opacity="0.56">github.com/sanskarIN/CalcNova</text>
  </g>
</svg>
